<?xml version="1.0" encoding="utf-8"?>
<!-- Generator: Adobe Illustrator 16.0.2, SVG Export Plug-In . SVG Version: 6.00 Build 0)  -->
<!DOCTYPE svg PUBLIC "-//W3C//DTD SVG 1.1//EN" "http://www.w3.org/Graphics/SVG/1.1/DTD/svg11.dtd">
<svg version="1.1" id="svg2" xmlns="http://www.w3.org/2000/svg" xmlns:xlink="http://www.w3.org/1999/xlink" x="0px" y="0px"
	 width="207.691px" height="232.391px" viewBox="30.163 64.274 207.691 232.391"
	 enable-background="new 30.163 64.274 207.691 232.391" xml:space="preserve">
<g>
	<path fill="#A4C639" d="M69.374,133.645c-0.047,0.54-0.088,1.086-0.088,1.639v92.557c0,9.507,7.191,17.229,16.358,17.906v36.678
		c0,7.865,6.376,14.24,14.24,14.24c7.865,0,14.241-6.375,14.241-14.24v-36.611h39.767v36.611c0,7.865,6.376,14.24,14.24,14.24
		c7.865,0,14.241-6.375,14.241-14.24v-36.678c9.167-0.678,16.357-8.4,16.357-17.906v-92.557c0-0.552-0.02-1.1-0.066-1.639H69.374z"
		/>
	<path fill="#A4C639" d="M44.404,141.883c-7.865,0-14.241,6.376-14.241,14.241v61.09c0,7.865,6.376,14.241,14.241,14.241
		c7.864,0,14.24-6.376,14.24-14.241v-61.09C58.644,148.259,52.268,141.883,44.404,141.883z"/>
	<path fill="#A4C639" d="M223.614,141.883c-7.865,0-14.241,6.376-14.241,14.241v61.09c0,7.865,6.376,14.241,14.241,14.241
		c7.864,0,14.24-6.376,14.24-14.241v-61.09C237.854,148.259,231.478,141.883,223.614,141.883z"/>
	<path fill="#A4C639" d="M69.79,123.565h128.438c-0.191-13.733-6.093-26.264-15.722-35.904l12.068-20.902
		c0.414-0.717,0.169-1.635-0.549-2.049c-0.716-0.415-1.636-0.17-2.049,0.549L180.27,85.534
		c-10.127-9.146-23.798-15.305-39.105-16.782h-14.313c-15.307,1.477-28.978,7.636-39.105,16.782L76.042,65.259
		c-0.414-0.717-1.33-0.963-2.049-0.549c-0.717,0.414-0.963,1.332-0.549,2.049l12.067,20.902
		C75.883,97.301,69.981,109.831,69.79,123.565z M155.139,98.087c-0.011-3.975,3.278-7.205,7.347-7.216
		c4.068-0.012,7.376,3.201,7.388,7.176c0,0.013,0,0.026,0,0.04c0.012,3.974-3.277,7.204-7.347,7.216
		c-4.068,0.011-7.376-3.202-7.388-7.176C155.139,98.114,155.139,98.1,155.139,98.087z M100.143,98.087
		c-0.011-3.975,3.278-7.205,7.347-7.216c4.068-0.012,7.376,3.201,7.388,7.176c0,0.013,0,0.026,0,0.04
		c0.012,3.974-3.277,7.204-7.347,7.216c-4.068,0.011-7.376-3.202-7.388-7.176C100.143,98.114,100.143,98.1,100.143,98.087z"/>
</g>
</svg>
