<?xml version="1.0" encoding="utf-8"?>
<!-- Generator: Adobe Illustrator 16.0.2, SVG Export Plug-In . SVG Version: 6.00 Build 0)  -->
<!DOCTYPE svg PUBLIC "-//W3C//DTD SVG 1.1//EN" "http://www.w3.org/Graphics/SVG/1.1/DTD/svg11.dtd">
<svg version="1.1" id="Layer_1" xmlns="http://www.w3.org/2000/svg" xmlns:xlink="http://www.w3.org/1999/xlink" x="0px" y="0px"
	 width="22px" height="12px" viewBox="0 0 22 12" enable-background="new 0 0 22 12" xml:space="preserve">
<g id="miu">
	<g id="editor_list_view_hambuger_menu_glyph">
		<g>
			<path id="path-1" fill="#FFFFFF" d="M0.501,0C0.224,0,0,0.214,0,0.505v0.99C0,1.774,0.218,2,0.501,2h20.998
				C21.775,2,22,1.786,22,1.495v-0.99C22,0.226,21.782,0,21.499,0H0.501z M0.501,5C0.224,5,0,5.214,0,5.505v0.99
				C0,6.773,0.218,7,0.501,7h20.998C21.775,7,22,6.786,22,6.495v-0.99C22,5.226,21.782,5,21.499,5H0.501z M0.501,10
				C0.224,10,0,10.214,0,10.505v0.99C0,11.773,0.218,12,0.501,12h20.998C21.775,12,22,11.786,22,11.495v-0.99
				C22,10.227,21.782,10,21.499,10H0.501z"/>
		</g>
		<g>
			<path id="path-1_1_" fill="#FFFFFF" d="M0.501,0C0.224,0,0,0.214,0,0.505v0.99C0,1.774,0.218,2,0.501,2h20.998
				C21.775,2,22,1.786,22,1.495v-0.99C22,0.226,21.782,0,21.499,0H0.501z M0.501,5C0.224,5,0,5.214,0,5.505v0.99
				C0,6.773,0.218,7,0.501,7h20.998C21.775,7,22,6.786,22,6.495v-0.99C22,5.226,21.782,5,21.499,5H0.501z M0.501,10
				C0.224,10,0,10.214,0,10.505v0.99C0,11.773,0.218,12,0.501,12h20.998C21.775,12,22,11.786,22,11.495v-0.99
				C22,10.227,21.782,10,21.499,10H0.501z"/>
		</g>
	</g>
</g>
</svg>
