<?xml version="1.0" encoding="utf-8"?>
<!-- Generator: Adobe Illustrator 16.0.2, SVG Export Plug-In . SVG Version: 6.00 Build 0)  -->
<!DOCTYPE svg PUBLIC "-//W3C//DTD SVG 1.1//EN" "http://www.w3.org/Graphics/SVG/1.1/DTD/svg11.dtd">
<svg version="1.1" id="Layer_1" xmlns="http://www.w3.org/2000/svg" xmlns:xlink="http://www.w3.org/1999/xlink" x="0px" y="0px"
	 width="23.867px" height="23.867px" viewBox="0 0 23.867 23.867" enable-background="new 0 0 23.867 23.867" xml:space="preserve">
<path fill="#D22856" d="M15.087,11.933l8.56-8.559c0.293-0.293,0.293-0.768,0-1.061L21.555,0.22C21.414,0.079,21.223,0,21.023,0
	s-0.392,0.079-0.529,0.22l-8.561,8.56l-8.56-8.56c-0.282-0.282-0.78-0.282-1.061,0L0.22,2.313c-0.293,0.293-0.293,0.768,0,1.061
	l8.56,8.559l-8.56,8.559c-0.293,0.293-0.293,0.77,0,1.063l2.093,2.094c0.141,0.142,0.331,0.22,0.53,0.22
	c0.199,0,0.39-0.078,0.53-0.22l8.561-8.561l8.56,8.561c0.141,0.142,0.332,0.22,0.529,0.22c0.199,0,0.391-0.078,0.531-0.22
	l2.092-2.094c0.293-0.293,0.293-0.77,0-1.063L15.087,11.933z"/>
</svg>
