<?xml version="1.0" encoding="utf-8"?>
<!-- Generator: Adobe Illustrator 16.0.2, SVG Export Plug-In . SVG Version: 6.00 Build 0)  -->
<!DOCTYPE svg PUBLIC "-//W3C//DTD SVG 1.1//EN" "http://www.w3.org/Graphics/SVG/1.1/DTD/svg11.dtd">
<svg version="1.1" id="Layer_1" xmlns="http://www.w3.org/2000/svg" xmlns:xlink="http://www.w3.org/1999/xlink" x="0px" y="0px"
	 width="78.672px" height="63.789px" viewBox="0 0 78.672 63.789" enable-background="new 0 0 78.672 63.789" xml:space="preserve">
<g>
	<path fill="#EFEFEF" d="M72.354,39.632c-2.797-2.401-6.637-3.604-11.518-3.604h-5.67c0.473-4.081,1.277-7.397,2.42-9.948
		c1.142-2.551,2.854-5.044,5.14-7.477c2.362-2.51,4.685-4.531,6.97-6.063c2.283-1.53,5.274-3.356,8.979-5.477L74.42,0
		c-2.441,1.495-5.475,3.42-9.096,5.779c-3.623,2.359-7.049,5.228-10.277,8.607c-3.15,3.302-5.83,7.056-8.032,11.261
		c-2.206,4.204-3.308,8.86-3.308,13.97c0,7.232,1.455,13.07,4.371,17.512c2.912,4.439,7.754,6.66,14.528,6.66
		c4.33,0,7.737-1.436,10.218-4.311c2.481-2.875,3.721-5.967,3.721-9.273C76.545,45.559,75.147,42.035,72.354,39.632z"/>
	<path fill="#EFEFEF" d="M19.019,18.603c2.362-2.51,4.685-4.531,6.97-6.063c2.283-1.53,5.274-3.356,8.978-5.477L30.713,0
		c-2.441,1.495-5.475,3.42-9.095,5.779c-3.624,2.359-7.05,5.228-10.278,8.607c-3.149,3.302-5.828,7.056-8.032,11.261
		C1.103,29.851,0,34.507,0,39.617c0,7.231,1.457,13.069,4.371,17.51c2.912,4.44,7.756,6.662,14.529,6.662
		c4.33,0,7.737-1.437,10.218-4.312s3.722-5.967,3.722-9.272c0-4.646-1.399-8.17-4.194-10.572c-2.796-2.401-6.635-3.604-11.517-3.604
		h-5.671c0.473-4.081,1.3-7.416,2.481-10.007C15.12,23.432,16.812,20.958,19.019,18.603z"/>
</g>
</svg>
