<?xml version="1.0" encoding="utf-8"?><!DOCTYPE svg PUBLIC "-//W3C//DTD SVG 1.0//EN" "http://www.w3.org/TR/2001/REC-SVG-20010904/DTD/svg10.dtd"><svg width="1200" height="502" viewBox="0 0 1200 502" xmlns="http://www.w3.org/2000/svg" xmlns:xlink="http://www.w3.org/1999/xlink"><svg version="1" width="42.084" height="47.041" viewBox="0 0 42.084 47.041" id="img--android-logo" x="596" y="260.143"><path fill="#A4C639" d="M34.144 14.01h-26.2c-.008.11-.017.22-.017.332v18.754c0 1.926 1.457 3.49 3.316 3.628v7.433a2.884 2.884 0 0 0 5.77 0v-7.42h8.058v7.42a2.885 2.885 0 0 0 5.772 0v-7.433c1.858-.137 3.315-1.702 3.315-3.628V14.342c0-.113-.004-.223-.013-.333zM2.886 15.68a2.886 2.886 0 0 1 2.886 2.884v12.378a2.885 2.885 0 0 1-5.772 0V18.564a2.885 2.885 0 0 1 2.886-2.885zM39.198 15.68a2.885 2.885 0 0 1 2.886 2.884v12.378a2.885 2.885 0 0 1-2.886 2.886 2.884 2.884 0 0 1-2.885-2.886V18.564a2.884 2.884 0 0 1 2.885-2.885zM8.03 11.967h26.025c-.04-2.783-1.234-5.322-3.186-7.275L33.314.457a.304.304 0 0 0-.527-.304L30.416 4.26c-2.052-1.853-4.82-3.1-7.924-3.4h-2.9c-3.102.3-5.872 1.547-7.924 3.4L9.296.152a.304.304 0 0 0-.526.304l2.445 4.235c-1.95 1.955-3.147 4.494-3.185 7.277zm17.293-5.163c-.002-.805.664-1.46 1.49-1.462.824-.002 1.493.648 1.496 1.454v.008c0 .805-.665 1.46-1.49 1.462-.824.002-1.494-.65-1.497-1.454v-.008zm-11.143 0c0-.805.665-1.46 1.49-1.462.823-.002 1.493.648 1.496 1.454v.008c.002.805-.664 1.46-1.488 1.462-.825.002-1.495-.65-1.498-1.454v-.008z"/></svg><svg version="1" width="46.21" height="56.753" viewBox="0 0 46.21 56.753" id="img--apple-logo" x="674.672" y="196.35399999999998"><path fill="#FFF" d="M38.593 30.15c.08 8.59 7.535 11.447 7.617 11.483-.062.202-1.19 4.073-3.927 8.072-2.365 3.457-4.82 6.9-8.688 6.973-3.8.07-5.02-2.253-9.365-2.253-4.344 0-5.702 2.182-9.298 2.323-3.733.142-6.576-3.74-8.96-7.184-4.876-7.046-8.6-19.91-3.598-28.593C4.858 16.66 9.3 13.93 14.117 13.858c3.666-.07 7.126 2.466 9.366 2.466 2.24 0 6.444-3.05 10.865-2.6 1.85.076 7.044.746 10.38 5.628-.27.17-6.197 3.62-6.135 10.8m-7.14-21.088c1.982-2.4 3.316-5.74 2.952-9.062-2.857.115-6.312 1.904-8.36 4.302-1.837 2.123-3.445 5.52-3.01 8.778 3.183.246 6.435-1.62 8.418-4.018"/></svg><svg version="1" width="28" height="26" viewBox="2 3 28 26" id="img--blog-post-icon" x="720.8820000000001" y="220.361"><path fill="#231F20" d="M29 3H3a1 1 0 0 0 0 2h25v16H15c-.04 0-.076.018-.116.023a.89.89 0 0 0-.382.127c-.034.02-.072.025-.103.05L8 26v-4a1 1 0 0 0-1-1H4V8a1 1 0 0 0-2 0v14a1 1 0 0 0 1 1h3v5a1 1 0 0 0 1.6.8l7.733-5.8H29a1 1 0 0 0 1-1V4a1 1 0 0 0-1-1z"/></svg><svg width="26.752" height="26.752" viewBox="0 0 26.752 26.752" id="img--cross" x="922.4879999999998" y="260.143"><path fill="#283645" d="M15.497 13.376L26.312 2.562a1.5 1.5 0 1 0-2.12-2.12L13.375 11.254 2.562.44a1.5 1.5 0 1 0-2.12 2.12l10.813 10.815L.44 24.19a1.5 1.5 0 0 0 1.06 2.56c.384 0 .768-.146 1.06-.438l10.816-10.814L24.19 26.312a1.497 1.497 0 0 0 2.122 0 1.5 1.5 0 0 0 0-2.12L15.497 13.375z"/></svg><svg width="26.752" height="26.752" viewBox="0 0 26.752 26.752" id="img--cross-grey" x="842.232" y="260.143"><path fill="#C2C2C2" d="M15.497 13.376L26.312 2.562a1.5 1.5 0 1 0-2.12-2.12L13.375 11.254 2.562.44a1.5 1.5 0 1 0-2.12 2.12l10.813 10.815L.44 24.19a1.5 1.5 0 0 0 1.06 2.56c.384 0 .768-.146 1.06-.438l10.816-10.814L24.19 26.312a1.497 1.497 0 0 0 2.122 0 1.5 1.5 0 0 0 0-2.12L15.497 13.375z"/></svg><svg width="26.752" height="26.752" viewBox="0 0 26.752 26.752" id="img--cross-white" x="895.7359999999999" y="260.143"><path fill="#FFF" d="M15.497 13.376L26.312 2.562a1.5 1.5 0 1 0-2.12-2.12L13.375 11.254 2.562.44a1.5 1.5 0 1 0-2.12 2.12l10.813 10.815L.44 24.19a1.5 1.5 0 0 0 1.06 2.56c.384 0 .768-.146 1.06-.438l10.816-10.814L24.19 26.312a1.497 1.497 0 0 0 2.122 0 1.5 1.5 0 0 0 0-2.12L15.497 13.375z"/></svg><svg width="8.672" height="18.943" viewBox="0 0 8.672 18.943" id="img--facebook" x="1180.4799999999998" y="94.074"><path fill="#D22856" d="M6.275 3.357h2.397V0H5.795C2.655.18 1.54 2.388 1.948 6.116H0v3.518h1.958v9.312h3.837V9.633H8.65V6.115H5.787c-.02-1.045-.036-2.406.49-2.758z"/></svg><svg version="1" width="26.943" height="34.09" viewBox="0 0 26.943 34.09" id="img--htmlacademy" x="815.289" y="260.143"><path d="M13.62.017L13.472 0 0 1.412v24.66l13.472 8.018 13.43-7.99.042-.026V1.412L13.62.017zm11.4 12.11L13.494 5.334V5.23l-.088.05-.088-.056v.11L1.924 12.117v-8.97l11.547-1.213L25.02 3.147v8.98zm-11.615-5.34L24.923 13.5l-4.48 2.64-7.092-4.22-.012 1.414 5.904 3.513-.86.507-5.03-2.992-.014 1.415 3.827 2.275-.782.523-3.032-1.787-.012 1.413 1.852 1.092-1.8 1.08-11.356-6.75 11.37-6.835zm-11.48 8.34l11.41 6.79.016 1.045-7.94-4.728-.015 1.416 7.98 4.796.016 1.076-7.97-4.74-.014 1.414 8.02 4.82.046.027 8.143-4.872v-1.267l-.01-.148v-3.76l3.414-2.037v10.02L13.47 31.85 1.925 24.98v-9.853z"/></svg><svg width="26.943" height="34.09" viewBox="0 0 26.943 34.09" id="img--htmlacademy-grey" x="788.346" y="260.143"><path fill="#283645" d="M13.62.017L13.472 0 0 1.412v24.66l13.473 8.018 13.43-7.99.042-.025V1.412L13.62.017zm11.4 12.11L13.494 5.334V5.23l-.088.05-.088-.056v.11L1.924 12.117v-8.97l11.548-1.213L25.02 3.147v8.98zm-11.615-5.34L24.923 13.5l-4.48 2.64-7.092-4.22-.013 1.414 5.904 3.513-.86.507-5.03-2.992-.013 1.415 3.827 2.276-.782.522-3.03-1.787-.015 1.413 1.853 1.092-1.8 1.08-11.356-6.75 11.37-6.835zm-11.48 8.34l11.41 6.79.017 1.045-7.942-4.728-.015 1.416 7.98 4.795.017 1.076-7.973-4.74-.014 1.415 8.02 4.822.047.025 8.143-4.872V20.9l-.01-.146v-3.76l3.414-2.037v10.02L13.472 31.85 1.925 24.98v-9.853z"/></svg><svg width="26.943" height="34.09" viewBox="0 0 26.943 34.09" id="img--htmlacademy-pink" x="761.403" y="260.143"><path fill="#D22856" d="M13.62.017L13.472 0 0 1.412v24.66l13.473 8.018 13.43-7.99.042-.025V1.412L13.62.017zm11.4 12.11L13.494 5.334V5.23l-.088.05-.088-.056v.11L1.924 12.117v-8.97l11.548-1.213L25.02 3.147v8.98zm-11.615-5.34L24.923 13.5l-4.48 2.64-7.092-4.22-.013 1.414 5.904 3.513-.86.507-5.03-2.992-.013 1.415 3.827 2.276-.782.522-3.03-1.787-.015 1.413 1.853 1.092-1.8 1.08-11.356-6.75 11.37-6.835zm-11.48 8.34l11.41 6.79.017 1.045-7.942-4.728-.015 1.416 7.98 4.795.017 1.076-7.973-4.74-.014 1.415 8.02 4.822.047.025 8.143-4.872V20.9l-.01-.146v-3.76l3.414-2.037v10.02L13.472 31.85 1.925 24.98v-9.853z"/></svg><svg version="1" width="146.3" height="40.375" viewBox="0 0 146.3 40.375" id="img--logotype-blue-desktop" x="596" y="155.97899999999998"><g fill="#283645"><path d="M71.874 18.66c0-.707.58-1.287 1.256-1.287h7.18c5.087 0 8.436 2.704 8.436 7.147v.064c0 4.86-4.057 7.373-8.854 7.373h-5.474v6.825c0 .708-.58 1.288-1.288 1.288-.676 0-1.256-.58-1.256-1.288v-20.12zm8.114 10.98c3.734 0 6.182-1.996 6.182-4.958v-.064c0-3.22-2.415-4.894-6.054-4.894h-5.698v9.917h5.57zM93.603 18.5c0-.708.58-1.288 1.255-1.288.71 0 1.288.58 1.288 1.288v20.283c0 .708-.58 1.288-1.288 1.288-.676 0-1.255-.58-1.255-1.287V18.5zM102.744 18.532c0-.676.58-1.256 1.256-1.256h.354c.58 0 .934.29 1.288.74l13.684 17.45V18.468c0-.676.547-1.256 1.256-1.256.676 0 1.223.58 1.223 1.256v20.348c0 .676-.482 1.19-1.158 1.19h-.13c-.547 0-.933-.32-1.32-.77l-13.973-17.87v17.45c0 .676-.547 1.256-1.255 1.256-.678 0-1.225-.58-1.225-1.256V18.532zM128.174 18.5c0-.708.58-1.288 1.256-1.288.708 0 1.287.58 1.287 1.288v12.33l12.847-13.167c.29-.257.58-.45.998-.45.676 0 1.224.61 1.224 1.255 0 .354-.16.644-.42.9l-7.983 7.92 8.564 10.562c.225.29.354.547.354.934 0 .676-.578 1.288-1.286 1.288-.483 0-.806-.258-1.03-.58L135.58 29.03l-4.86 4.86v4.894a1.29 1.29 0 0 1-1.288 1.288c-.677 0-1.256-.58-1.256-1.288V18.5z"/></g><path fill="#D22856" d="M98.498 9.875a3.624 3.624 0 0 1-3.624-3.624c0 2.002-1.622 3.625-3.624 3.625a3.624 3.624 0 0 1 3.624 3.624c0-2.002 1.622-3.625 3.624-3.625z"/><g fill="#D22856"><path d="M43.094 19.312c.246 0 .488.014.73.033a2.493 2.493 0 0 0-2.137-1.22 1.994 1.994 0 0 1-1.884-1.355 11.9 11.9 0 0 0-2.09.816c.063.017.124.038.19.038a2 2 0 0 1 2 2c0 .096-.015.188-.028.28a9.02 9.02 0 0 1 3.22-.592z"/><path d="M60.498 28.32c0-.054-.01-.105-.016-.158-.006-.05-.01-.098-.02-.146-.002-.01 0-.017-.003-.025L55.286 6.65c-.36-2.347-2.593-6.65-8.6-6.65a1.5 1.5 0 0 0 0 3c4.857 0 5.576 3.73 5.64 4.143l4.767 19.7H55.02c-.444-3.556-2.45-6.627-5.303-8.522a2.503 2.503 0 0 0-1.53 2.304c0 .087-.015.17-.026.255a9.035 9.035 0 0 1 3.83 5.964c.083.49.136.988.136 1.5s-.053 1.01-.135 1.5c-.715 4.272-4.42 7.53-8.895 7.53s-8.18-3.258-8.896-7.53c-.083-.49-.136-.988-.136-1.5s.053-1.01.135-1.5c.146-.88.426-1.71.807-2.484a1.994 1.994 0 0 1-1.85-1.985.742.742 0 0 0-.193-.49 11.96 11.96 0 0 0-1.796 4.958H29.46c-.742-5.927-5.802-10.53-11.927-10.53s-11.187 4.604-11.93 10.53H3.408l4.74-19.552.027-.147C8.197 6.973 8.802 3 13.812 3a1.5 1.5 0 0 0 0-3c-6.006 0-8.238 4.303-8.6 6.65L.043 27.99c-.002.01 0 .017-.003.025-.012.05-.015.098-.02.146-.008.054-.017.105-.017.16L0 28.343c0 .035.008.068.01.103.004.058.007.115.017.17.01.047.023.092.036.137.014.048.026.096.044.142.018.046.042.09.064.133.022.04.043.084.068.123.026.04.057.077.086.114.03.04.06.078.093.113.032.033.067.062.102.092.038.033.075.067.116.097.04.026.082.05.123.072.04.024.082.05.127.07.05.02.1.037.152.054.035.012.067.028.104.037.008.002.015 0 .023.003.107.023.217.04.33.04h4.104c.07.57.194 1.122.343 1.665.017-.06.038-.12.038-.187a2 2 0 0 1 2-2c.208 0 .405.04.594.1a8.94 8.94 0 0 1-.077-1.08c0-.51.053-1.01.135-1.5.716-4.27 4.42-7.53 8.896-7.53s8.182 3.26 8.897 7.53c.082.49.135.99.135 1.5s-.053 1.012-.135 1.5c-.716 4.273-4.42 7.532-8.896 7.532a8.957 8.957 0 0 1-5.443-1.84c-.356.33-.83.537-1.354.537a.75.75 0 0 0-.75.748c0 .265-.053.516-.146.747a11.944 11.944 0 0 0 7.694 2.808c6.126 0 11.187-4.604 11.928-10.53h1.708c.742 5.926 5.802 10.53 11.927 10.53S54.28 35.77 55.02 29.845H59c.114 0 .224-.017.33-.04.01-.002.016 0 .024-.003.037-.01.07-.025.105-.037.05-.017.103-.032.15-.054.046-.02.087-.045.13-.07.04-.022.083-.045.122-.072.042-.03.08-.063.117-.097.033-.028.07-.058.1-.09.035-.036.064-.075.094-.114.03-.037.06-.074.086-.114.025-.04.045-.082.067-.124.023-.043.046-.087.064-.133.02-.046.032-.094.045-.142.013-.045.027-.09.036-.136.01-.056.014-.113.018-.17.002-.035.01-.068.01-.104.002-.007 0-.015 0-.023z"/></g><path fill="#283645" d="M50.686 16.125a4.5 4.5 0 0 1-4.5-4.5 4.5 4.5 0 0 1-4.498 4.5 4.5 4.5 0 0 1 4.5 4.5c0-2.486 2.012-4.5 4.498-4.5zM37.904 19.626c-1.52 0-2.75-1.23-2.75-2.75 0 1.52-1.23 2.75-2.748 2.75 1.52 0 2.75 1.23 2.75 2.75a2.75 2.75 0 0 1 2.748-2.75zM10.734 34.072c-1.52 0-2.75-1.23-2.75-2.75 0 1.52-1.23 2.75-2.748 2.75 1.52 0 2.75 1.23 2.75 2.748a2.748 2.748 0 0 1 2.748-2.748z"/></svg><svg version="1" width="146.3" height="40.375" viewBox="0 0 146.3 40.375" id="img--logotype-blue-tablet" x="1034.1799999999998" y="94.074"><g fill="#283645"><path d="M71.874 18.66c0-.707.58-1.287 1.256-1.287h7.18c5.087 0 8.436 2.704 8.436 7.147v.064c0 4.86-4.057 7.373-8.854 7.373h-5.474v6.825c0 .708-.58 1.288-1.288 1.288-.676 0-1.256-.58-1.256-1.288v-20.12zm8.114 10.98c3.734 0 6.182-1.996 6.182-4.958v-.064c0-3.22-2.415-4.894-6.054-4.894h-5.698v9.917h5.57zM93.603 18.5c0-.708.58-1.288 1.255-1.288.71 0 1.288.58 1.288 1.288v20.283c0 .708-.58 1.288-1.288 1.288-.676 0-1.255-.58-1.255-1.287V18.5zM102.744 18.532c0-.676.58-1.256 1.256-1.256h.354c.58 0 .934.29 1.288.74l13.684 17.45V18.468c0-.676.547-1.256 1.256-1.256.676 0 1.223.58 1.223 1.256v20.348c0 .676-.482 1.19-1.158 1.19h-.13c-.547 0-.933-.32-1.32-.77l-13.973-17.87v17.45c0 .676-.547 1.256-1.255 1.256-.678 0-1.225-.58-1.225-1.256V18.532zM128.174 18.5c0-.708.58-1.288 1.256-1.288.708 0 1.287.58 1.287 1.288v12.33l12.847-13.167c.29-.257.58-.45.998-.45.676 0 1.224.61 1.224 1.255 0 .354-.16.644-.42.9l-7.983 7.92 8.564 10.562c.225.29.354.547.354.934 0 .676-.578 1.288-1.286 1.288-.483 0-.806-.258-1.03-.58L135.58 29.03l-4.86 4.86v4.894a1.29 1.29 0 0 1-1.288 1.288c-.677 0-1.256-.58-1.256-1.288V18.5z"/></g><path fill="#D22856" d="M60.498 28.32c0-.054-.01-.105-.016-.158-.006-.05-.01-.098-.02-.146-.002-.01 0-.017-.003-.025L55.286 6.65c-.36-2.347-2.593-6.65-8.6-6.65a1.5 1.5 0 0 0 0 3c4.857 0 5.576 3.73 5.64 4.143l4.767 19.7H55.02c-.74-5.926-5.8-10.53-11.926-10.53s-11.186 4.604-11.927 10.53H29.46c-.743-5.926-5.803-10.53-11.928-10.53S6.346 20.917 5.604 26.843H3.407l4.74-19.552.027-.147C8.197 6.973 8.802 3 13.812 3a1.5 1.5 0 0 0 0-3c-6.006 0-8.238 4.303-8.6 6.65L.043 27.99c-.002.01 0 .017-.003.025-.012.05-.015.098-.02.146-.008.054-.017.105-.017.16L0 28.343c0 .035.008.068.01.103.004.058.007.115.017.17.01.047.023.092.036.137.014.048.026.096.044.142.018.046.042.09.064.133.022.04.043.084.068.123.026.04.057.077.086.114.03.04.06.078.093.113.032.033.067.062.102.092.038.033.075.067.116.097.04.026.082.05.123.072.04.024.082.05.127.07.05.02.1.037.152.054.035.012.067.028.104.037.008.002.015 0 .023.003.107.023.217.04.33.04h4.104c.742 5.926 5.802 10.53 11.927 10.53s11.185-4.604 11.926-10.53h1.708c.742 5.926 5.802 10.53 11.927 10.53s11.187-4.604 11.928-10.53H59c.114 0 .224-.017.33-.04.01-.002.016 0 .024-.003.037-.01.07-.025.105-.037.05-.017.103-.032.15-.054.046-.02.087-.046.13-.07.04-.023.083-.046.122-.073.042-.03.08-.064.117-.098.033-.03.07-.06.1-.092.035-.035.064-.074.094-.113.03-.037.06-.074.086-.114.025-.04.045-.082.067-.124.023-.044.046-.088.064-.134.02-.046.032-.094.045-.142.013-.045.027-.09.036-.136.01-.056.014-.113.018-.17.002-.035.01-.068.01-.104.002-.008 0-.016 0-.024zM17.53 37.375c-4.474 0-8.18-3.26-8.895-7.53-.082-.49-.135-.99-.135-1.5s.053-1.012.135-1.5c.716-4.272 4.42-7.532 8.896-7.532s8.182 3.26 8.897 7.53c.082.49.135.99.135 1.5s-.053 1.012-.135 1.5c-.715 4.273-4.42 7.532-8.896 7.532zm25.564 0c-4.475 0-8.18-3.26-8.896-7.53-.082-.49-.135-.99-.135-1.5s.053-1.012.135-1.5c.716-4.272 4.42-7.532 8.896-7.532s8.18 3.26 8.896 7.53c.082.49.135.99.135 1.5s-.053 1.012-.135 1.5c-.716 4.273-4.42 7.532-8.896 7.532z"/></svg><svg width="146.3" height="40.375" viewBox="0 0 146.3 40.375" id="img--logotype-pink-desktop" x="742.3" y="155.97899999999998"><g fill="#D22856"><path d="M71.874 18.66c0-.707.58-1.287 1.256-1.287h7.18c5.087 0 8.436 2.704 8.436 7.146v.063c0 4.86-4.057 7.373-8.854 7.373h-5.475v6.824c0 .71-.58 1.29-1.288 1.29-.677 0-1.257-.58-1.257-1.29V18.66zm8.114 10.98c3.734 0 6.182-1.995 6.182-4.958v-.063c0-3.22-2.414-4.895-6.053-4.895h-5.7v9.917h5.57zM93.603 18.5c0-.708.58-1.288 1.255-1.288.71 0 1.288.58 1.288 1.288v20.283a1.29 1.29 0 0 1-1.288 1.287c-.676 0-1.255-.58-1.255-1.287V18.5zM102.744 18.532c0-.676.58-1.256 1.256-1.256h.354c.58 0 .935.29 1.288.74l13.684 17.45V18.468c0-.676.547-1.256 1.256-1.256.676 0 1.224.58 1.224 1.256v20.348c0 .676-.482 1.19-1.158 1.19h-.13c-.547 0-.934-.32-1.318-.772l-13.975-17.868v17.45c0 .676-.547 1.256-1.255 1.256-.677 0-1.224-.58-1.224-1.256V18.532h-.002zM128.173 18.5c0-.708.58-1.288 1.257-1.288.708 0 1.286.58 1.286 1.288v12.33l12.848-13.167c.29-.257.58-.45.998-.45.676 0 1.225.61 1.225 1.255 0 .354-.162.644-.42.9l-7.984 7.92 8.564 10.562c.225.29.354.547.354.935 0 .676-.577 1.288-1.285 1.288-.483 0-.806-.258-1.03-.58l-8.402-10.463-4.863 4.86v4.895a1.29 1.29 0 0 1-1.286 1.288c-.677 0-1.257-.58-1.257-1.288V18.5h-.004z"/></g><path fill="#D22856" d="M98.498 9.875a3.623 3.623 0 0 1-3.623-3.624c0 2.002-1.623 3.625-3.625 3.625a3.625 3.625 0 0 1 3.625 3.624c0-2.002 1.62-3.625 3.623-3.625z"/><g fill="#D22856"><path d="M43.094 19.312c.246 0 .488.014.73.033a2.493 2.493 0 0 0-2.137-1.22 1.994 1.994 0 0 1-1.884-1.355 11.9 11.9 0 0 0-2.09.816c.063.017.124.038.19.038a2 2 0 0 1 2 2c0 .096-.015.188-.028.28a9.02 9.02 0 0 1 3.22-.592z"/><path d="M60.498 28.32c0-.055-.01-.105-.016-.158-.006-.05-.01-.098-.02-.146-.002-.01 0-.017-.003-.024l-5.173-21.34C54.927 4.302 52.694 0 46.687 0a1.5 1.5 0 0 0 0 3c4.857 0 5.576 3.73 5.64 4.143l4.767 19.7H55.02c-.444-3.556-2.45-6.627-5.303-8.522a2.503 2.503 0 0 0-1.53 2.304c0 .087-.015.17-.026.255a9.033 9.033 0 0 1 3.83 5.964c.083.49.136.988.136 1.5s-.053 1.012-.135 1.5c-.715 4.27-4.42 7.53-8.895 7.53s-8.18-3.258-8.896-7.53c-.083-.488-.136-.988-.136-1.5s.053-1.01.135-1.5c.146-.88.426-1.71.807-2.484a1.994 1.994 0 0 1-1.85-1.984.744.744 0 0 0-.193-.49 11.96 11.96 0 0 0-1.796 4.96H29.46c-.742-5.93-5.802-10.533-11.927-10.533s-11.187 4.604-11.93 10.53H3.408l4.74-19.552.027-.147C8.197 6.973 8.802 3 13.812 3a1.5 1.5 0 0 0 0-3c-6.006 0-8.238 4.303-8.6 6.65L.043 27.99c-.002.01 0 .017-.003.025-.012.05-.015.098-.02.146-.008.054-.017.105-.017.158 0 .01-.003.018-.003.026 0 .035.008.068.01.104.004.058.007.115.017.17.01.047.023.092.036.137.014.05.026.096.044.143.018.045.042.09.064.133.022.042.043.085.068.124.026.04.057.078.086.115.03.038.06.077.093.11.032.034.067.063.102.094.038.032.075.066.116.096.04.027.082.05.123.074.04.023.082.05.127.07.05.02.1.036.152.053.035.012.067.028.104.037l.023.004c.107.022.217.04.33.04h4.104c.07.568.194 1.122.343 1.665.017-.063.038-.12.038-.19a2 2 0 0 1 2-2c.208 0 .405.042.594.102a9.002 9.002 0 0 1-.077-1.08c0-.513.053-1.012.135-1.5.716-4.272 4.42-7.532 8.896-7.532 4.476 0 8.182 3.26 8.897 7.53.082.49.135.99.135 1.5s-.053 1.013-.135 1.5c-.716 4.273-4.42 7.532-8.896 7.532a8.957 8.957 0 0 1-5.443-1.84c-.356.33-.83.537-1.354.537a.75.75 0 0 0-.75.748c0 .265-.053.516-.146.746a11.94 11.94 0 0 0 7.694 2.81c6.126 0 11.187-4.605 11.928-10.532h1.708c.742 5.928 5.802 10.53 11.927 10.53s11.186-4.603 11.927-10.53H59c.114 0 .224-.016.33-.04h.024c.037-.01.07-.026.105-.038.05-.018.103-.033.15-.055.046-.02.087-.045.13-.07.04-.02.083-.044.122-.07.042-.03.08-.064.117-.1.033-.028.07-.058.1-.09.035-.036.064-.075.094-.114.03-.037.06-.074.086-.113.025-.04.045-.082.067-.125.023-.043.046-.086.064-.133.02-.045.032-.094.045-.142.013-.045.027-.09.036-.136.01-.057.014-.113.018-.172.002-.033.01-.066.01-.102.002-.007 0-.015 0-.023z"/></g><path fill="#D22856" d="M50.686 16.125a4.5 4.5 0 0 1-4.5-4.5 4.5 4.5 0 0 1-4.498 4.5 4.5 4.5 0 0 1 4.5 4.5c0-2.486 2.012-4.5 4.498-4.5zM37.904 19.626c-1.52 0-2.75-1.23-2.75-2.75 0 1.52-1.23 2.75-2.748 2.75 1.52 0 2.75 1.23 2.75 2.75 0-1.52 1.23-2.75 2.748-2.75zM10.734 34.072c-1.52 0-2.75-1.23-2.75-2.75 0 1.52-1.23 2.75-2.748 2.75 1.52 0 2.75 1.23 2.75 2.748a2.748 2.748 0 0 1 2.748-2.748z"/></svg><svg width="74.426" height="22.859" viewBox="0 0 74.426 22.859" id="img--logotype-pink-mobile" x="963.026" y="155.97899999999998"><g fill="#D22856"><path d="M0 1.45C0 .74.58.16 1.256.16h7.18c5.087 0 8.436 2.705 8.436 7.148v.063c0 4.862-4.057 7.374-8.854 7.374H2.544v6.825c0 .707-.58 1.287-1.288 1.287C.58 22.86 0 22.28 0 21.57V1.45zm8.114 10.978c3.734 0 6.182-1.996 6.182-4.958v-.065c0-3.22-2.415-4.894-6.054-4.894H2.544v9.918h5.57zM21.73 1.288C21.73.58 22.307 0 22.982 0c.71 0 1.288.58 1.288 1.288V21.57c0 .71-.578 1.29-1.287 1.29-.676 0-1.255-.58-1.255-1.29V1.29zM30.87 1.32c0-.676.58-1.256 1.256-1.256h.354c.58 0 .934.29 1.288.74l13.684 17.45V1.255C47.452.58 47.998 0 48.707 0c.676 0 1.223.58 1.223 1.256v20.35c0 .675-.48 1.19-1.158 1.19h-.13c-.546 0-.933-.322-1.318-.772L33.35 4.154v17.45c0 .675-.548 1.255-1.256 1.255-.677 0-1.224-.58-1.224-1.257V1.32zM56.3 1.288C56.3.58 56.88 0 57.557 0c.707 0 1.286.58 1.286 1.288v12.33L71.69.452c.29-.257.58-.45.998-.45.676 0 1.225.612 1.225 1.256 0 .354-.16.645-.42.9l-7.983 7.92 8.564 10.563c.225.29.354.546.354.933 0 .676-.58 1.288-1.286 1.288-.483 0-.807-.257-1.03-.58L63.708 11.82l-4.862 4.86v4.895c0 .708-.58 1.288-1.287 1.288-.677 0-1.256-.58-1.256-1.287V1.288H56.3z"/></g></svg><svg width="146.3" height="40.375" viewBox="0 0 146.3 40.375" id="img--logotype-pink-tablet" x="887.8799999999999" y="94.074"><g fill="#D22856"><path d="M71.874 18.66c0-.707.58-1.287 1.256-1.287h7.18c5.087 0 8.436 2.704 8.436 7.146v.063c0 4.86-4.057 7.373-8.854 7.373h-5.475v6.824c0 .71-.58 1.29-1.288 1.29-.677 0-1.257-.58-1.257-1.29V18.66zm8.114 10.98c3.734 0 6.182-1.995 6.182-4.958v-.063c0-3.22-2.414-4.895-6.053-4.895h-5.7v9.917h5.57zM93.603 18.5c0-.708.58-1.288 1.255-1.288.71 0 1.288.58 1.288 1.288v20.283a1.29 1.29 0 0 1-1.288 1.287c-.676 0-1.255-.58-1.255-1.287V18.5zM102.744 18.532c0-.676.58-1.256 1.256-1.256h.354c.58 0 .935.29 1.288.74l13.684 17.45V18.468c0-.676.547-1.256 1.256-1.256.676 0 1.224.58 1.224 1.256v20.348c0 .676-.482 1.19-1.158 1.19h-.13c-.547 0-.934-.32-1.318-.772l-13.975-17.868v17.45c0 .676-.547 1.256-1.255 1.256-.677 0-1.224-.58-1.224-1.256V18.532h-.002zM128.173 18.5c0-.708.58-1.288 1.257-1.288.708 0 1.286.58 1.286 1.288v12.33l12.848-13.167c.29-.257.58-.45.998-.45.676 0 1.225.61 1.225 1.255 0 .354-.162.644-.42.9l-7.984 7.92 8.564 10.562c.225.29.354.547.354.935 0 .676-.577 1.288-1.285 1.288-.483 0-.806-.258-1.03-.58l-8.402-10.463-4.863 4.86v4.895a1.29 1.29 0 0 1-1.286 1.288c-.677 0-1.257-.58-1.257-1.288V18.5h-.004z"/></g><path fill="#D22856" d="M60.498 28.32c0-.055-.01-.105-.016-.158-.006-.05-.01-.098-.02-.146-.002-.01 0-.017-.003-.024l-5.173-21.34C54.927 4.302 52.694 0 46.687 0a1.5 1.5 0 0 0 0 3c4.857 0 5.576 3.73 5.64 4.143l4.767 19.7H55.02c-.74-5.926-5.8-10.53-11.926-10.53s-11.186 4.604-11.927 10.53H29.46c-.743-5.926-5.803-10.53-11.928-10.53S6.346 20.917 5.604 26.843H3.407l4.74-19.552.027-.147C8.197 6.973 8.802 3 13.812 3a1.5 1.5 0 0 0 0-3c-6.006 0-8.238 4.303-8.6 6.65L.043 27.99c-.002.01 0 .017-.003.025-.012.05-.015.098-.02.146-.008.054-.017.105-.017.158 0 .01-.003.018-.003.026 0 .035.008.068.01.104.004.058.007.115.017.17.01.047.023.092.036.137.014.05.026.096.044.143.018.045.042.09.064.133.022.042.043.085.068.124.026.04.057.078.086.115.03.038.06.077.093.11.032.034.067.063.102.094.038.032.075.066.116.096.04.027.082.05.123.074.04.023.082.05.127.07.05.02.1.036.152.053.035.012.067.028.104.037l.023.004c.107.022.217.04.33.04h4.104c.742 5.925 5.802 10.53 11.927 10.53s11.185-4.605 11.926-10.53h1.708c.742 5.925 5.802 10.53 11.927 10.53s11.187-4.605 11.928-10.53H59c.114 0 .224-.018.33-.04l.024-.004c.037-.01.07-.025.105-.037.05-.017.103-.03.15-.054.046-.02.087-.046.13-.07s.083-.046.122-.073c.042-.028.08-.063.117-.096.033-.03.07-.06.1-.093.035-.033.064-.072.094-.11.03-.038.06-.075.086-.116.025-.04.045-.082.067-.123.023-.042.046-.087.064-.132.02-.047.032-.094.045-.143.013-.045.027-.09.036-.136.01-.057.014-.114.018-.172.002-.034.01-.067.01-.104.002-.008 0-.016 0-.024zM17.53 37.375c-4.474 0-8.18-3.26-8.895-7.53-.082-.49-.135-.99-.135-1.5s.053-1.012.135-1.5c.716-4.272 4.42-7.532 8.896-7.532 4.476 0 8.182 3.26 8.897 7.53.082.49.135.99.135 1.5s-.053 1.013-.135 1.5c-.715 4.273-4.42 7.532-8.896 7.532zm25.564 0c-4.475 0-8.18-3.26-8.896-7.53-.082-.49-.135-.99-.135-1.5s.053-1.012.135-1.5c.716-4.272 4.42-7.532 8.896-7.532 4.475 0 8.18 3.26 8.896 7.53.082.49.135.99.135 1.5s-.053 1.013-.135 1.5c-.716 4.273-4.42 7.532-8.896 7.532z"/></svg><svg version="1" width="146.3" height="40.375" viewBox="0 0 146.3 40.375" id="img--logotype-white-desktop" x="595.28" y="94.074"><g fill="#FFF"><path d="M71.874 18.66c0-.707.58-1.287 1.256-1.287h7.18c5.087 0 8.436 2.704 8.436 7.147v.064c0 4.86-4.057 7.373-8.854 7.373h-5.474v6.825c0 .708-.58 1.288-1.288 1.288-.676 0-1.256-.58-1.256-1.288v-20.12zm8.114 10.98c3.734 0 6.182-1.996 6.182-4.958v-.064c0-3.22-2.415-4.894-6.054-4.894h-5.698v9.917h5.57zM93.603 18.5c0-.708.58-1.288 1.255-1.288.71 0 1.288.58 1.288 1.288v20.283c0 .708-.58 1.288-1.288 1.288-.676 0-1.255-.58-1.255-1.287V18.5zM102.744 18.532c0-.676.58-1.256 1.256-1.256h.354c.58 0 .934.29 1.288.74l13.684 17.45V18.468c0-.676.547-1.256 1.256-1.256.676 0 1.223.58 1.223 1.256v20.348c0 .676-.482 1.19-1.158 1.19h-.13c-.547 0-.933-.32-1.32-.77l-13.973-17.87v17.45c0 .676-.547 1.256-1.255 1.256-.678 0-1.225-.58-1.225-1.256V18.532zM128.174 18.5c0-.708.58-1.288 1.256-1.288.708 0 1.287.58 1.287 1.288v12.33l12.847-13.167c.29-.257.58-.45.998-.45.676 0 1.224.61 1.224 1.255 0 .354-.16.644-.42.9l-7.983 7.92 8.564 10.562c.225.29.354.547.354.934 0 .676-.578 1.288-1.286 1.288-.483 0-.806-.258-1.03-.58L135.58 29.03l-4.86 4.86v4.894a1.29 1.29 0 0 1-1.288 1.288c-.677 0-1.256-.58-1.256-1.288V18.5z"/></g><path fill="#D22856" d="M98.498 9.875a3.624 3.624 0 0 1-3.624-3.624c0 2.002-1.622 3.625-3.624 3.625a3.624 3.624 0 0 1 3.624 3.624c0-2.002 1.622-3.625 3.624-3.625z"/><g fill="#FFF"><path d="M43.094 19.312c.246 0 .488.014.73.033a2.493 2.493 0 0 0-2.137-1.22 1.994 1.994 0 0 1-1.884-1.355 11.9 11.9 0 0 0-2.09.816c.063.017.124.038.19.038a2 2 0 0 1 2 2c0 .096-.015.188-.028.28a9.02 9.02 0 0 1 3.22-.592z"/><path d="M60.498 28.32c0-.054-.01-.105-.016-.158-.006-.05-.01-.098-.02-.146-.002-.01 0-.017-.003-.025L55.286 6.65c-.36-2.347-2.593-6.65-8.6-6.65a1.5 1.5 0 0 0 0 3c4.857 0 5.576 3.73 5.64 4.143l4.767 19.7H55.02c-.444-3.556-2.45-6.627-5.303-8.522a2.503 2.503 0 0 0-1.53 2.304c0 .087-.015.17-.026.255a9.035 9.035 0 0 1 3.83 5.964c.083.49.136.988.136 1.5s-.053 1.01-.135 1.5c-.715 4.272-4.42 7.53-8.895 7.53s-8.18-3.258-8.896-7.53c-.083-.49-.136-.988-.136-1.5s.053-1.01.135-1.5c.146-.88.426-1.71.807-2.484a1.994 1.994 0 0 1-1.85-1.985.742.742 0 0 0-.193-.49 11.96 11.96 0 0 0-1.796 4.958H29.46c-.742-5.927-5.802-10.53-11.927-10.53s-11.187 4.604-11.93 10.53H3.408l4.74-19.552.027-.147C8.197 6.973 8.802 3 13.812 3a1.5 1.5 0 0 0 0-3c-6.006 0-8.238 4.303-8.6 6.65L.043 27.99c-.002.01 0 .017-.003.025-.012.05-.015.098-.02.146-.008.054-.017.105-.017.16L0 28.343c0 .035.008.068.01.103.004.058.007.115.017.17.01.047.023.092.036.137.014.048.026.096.044.142.018.046.042.09.064.133.022.04.043.084.068.123.026.04.057.077.086.114.03.04.06.078.093.113.032.033.067.062.102.092.038.033.075.067.116.097.04.026.082.05.123.072.04.024.082.05.127.07.05.02.1.037.152.054.035.012.067.028.104.037.008.002.015 0 .023.003.107.023.217.04.33.04h4.104c.07.57.194 1.122.343 1.665.017-.06.038-.12.038-.187a2 2 0 0 1 2-2c.208 0 .405.04.594.1a8.94 8.94 0 0 1-.077-1.08c0-.51.053-1.01.135-1.5.716-4.27 4.42-7.53 8.896-7.53s8.182 3.26 8.897 7.53c.082.49.135.99.135 1.5s-.053 1.012-.135 1.5c-.716 4.273-4.42 7.532-8.896 7.532a8.957 8.957 0 0 1-5.443-1.84c-.356.33-.83.537-1.354.537a.75.75 0 0 0-.75.748c0 .265-.053.516-.146.747a11.944 11.944 0 0 0 7.694 2.808c6.126 0 11.187-4.604 11.928-10.53h1.708c.742 5.926 5.802 10.53 11.927 10.53S54.28 35.77 55.02 29.845H59c.114 0 .224-.017.33-.04.01-.002.016 0 .024-.003.037-.01.07-.025.105-.037.05-.017.103-.032.15-.054.046-.02.087-.045.13-.07.04-.022.083-.045.122-.072.042-.03.08-.063.117-.097.033-.028.07-.058.1-.09.035-.036.064-.075.094-.114.03-.037.06-.074.086-.114.025-.04.045-.082.067-.124.023-.043.046-.087.064-.133.02-.046.032-.094.045-.142.013-.045.027-.09.036-.136.01-.056.014-.113.018-.17.002-.035.01-.068.01-.104.002-.007 0-.015 0-.023z"/></g><path fill="#D22856" d="M50.686 16.125a4.5 4.5 0 0 1-4.5-4.5 4.5 4.5 0 0 1-4.498 4.5 4.5 4.5 0 0 1 4.5 4.5c0-2.486 2.012-4.5 4.498-4.5zM37.904 19.626c-1.52 0-2.75-1.23-2.75-2.75 0 1.52-1.23 2.75-2.748 2.75 1.52 0 2.75 1.23 2.75 2.75a2.75 2.75 0 0 1 2.748-2.75zM10.734 34.072c-1.52 0-2.75-1.23-2.75-2.75 0 1.52-1.23 2.75-2.748 2.75 1.52 0 2.75 1.23 2.75 2.748a2.748 2.748 0 0 1 2.748-2.748z"/></svg><svg version="1" width="74.426" height="22.859" viewBox="0 0 74.426 22.859" id="img--logotype-white-mobile" x="888.5999999999999" y="155.97899999999998"><g fill="#FFF"><path d="M0 1.45C0 .74.58.16 1.256.16h7.18c5.087 0 8.436 2.705 8.436 7.148v.064c0 4.86-4.057 7.373-8.854 7.373H2.544v6.825c0 .708-.58 1.288-1.288 1.288C.58 22.858 0 22.278 0 21.57V1.45zm8.114 10.978c3.734 0 6.182-1.996 6.182-4.958v-.065c0-3.22-2.415-4.894-6.054-4.894H2.544v9.918h5.57zM21.73 1.288C21.73.58 22.307 0 22.982 0c.71 0 1.288.58 1.288 1.288V21.57c0 .71-.578 1.29-1.287 1.29-.676 0-1.255-.58-1.255-1.29V1.29zM30.87 1.32c0-.676.58-1.256 1.256-1.256h.354c.58 0 .934.29 1.288.74l13.684 17.45V1.256C47.452.58 47.998 0 48.707 0c.676 0 1.223.58 1.223 1.256v20.348c0 .676-.482 1.19-1.158 1.19h-.13c-.547 0-.933-.32-1.32-.77L33.35 4.153v17.45c0 .675-.548 1.255-1.256 1.255-.677 0-1.224-.58-1.224-1.257V1.32zM56.3 1.288C56.3.58 56.88 0 57.556 0c.708 0 1.287.58 1.287 1.288v12.33L71.69.452c.29-.257.58-.45.998-.45.676 0 1.224.612 1.224 1.256 0 .354-.16.644-.42.9l-7.983 7.92 8.563 10.562c.225.29.354.547.354.934 0 .676-.58 1.288-1.287 1.288-.483 0-.806-.258-1.03-.58l-8.403-10.463-4.862 4.86v4.895a1.29 1.29 0 0 1-1.287 1.288c-.677 0-1.256-.58-1.256-1.288V1.288z"/></g></svg><svg version="1" width="146.3" height="40.375" viewBox="0 0 146.3 40.375" id="img--logotype-white-tablet" x="741.5799999999999" y="94.074"><g fill="#FFF"><path d="M71.874 18.66c0-.707.58-1.287 1.256-1.287h7.18c5.087 0 8.436 2.704 8.436 7.147v.064c0 4.86-4.057 7.373-8.854 7.373h-5.474v6.825c0 .708-.58 1.288-1.288 1.288-.676 0-1.256-.58-1.256-1.288v-20.12zm8.114 10.98c3.734 0 6.182-1.996 6.182-4.958v-.064c0-3.22-2.415-4.894-6.054-4.894h-5.698v9.917h5.57zM93.603 18.5c0-.708.58-1.288 1.255-1.288.71 0 1.288.58 1.288 1.288v20.283c0 .708-.58 1.288-1.288 1.288-.676 0-1.255-.58-1.255-1.287V18.5zM102.744 18.532c0-.676.58-1.256 1.256-1.256h.354c.58 0 .934.29 1.288.74l13.684 17.45V18.468c0-.676.547-1.256 1.256-1.256.676 0 1.223.58 1.223 1.256v20.348c0 .676-.482 1.19-1.158 1.19h-.13c-.547 0-.933-.32-1.32-.77l-13.973-17.87v17.45c0 .676-.547 1.256-1.255 1.256-.678 0-1.225-.58-1.225-1.256V18.532zM128.174 18.5c0-.708.58-1.288 1.256-1.288.708 0 1.287.58 1.287 1.288v12.33l12.847-13.167c.29-.257.58-.45.998-.45.676 0 1.224.61 1.224 1.255 0 .354-.16.644-.42.9l-7.983 7.92 8.564 10.562c.225.29.354.547.354.934 0 .676-.578 1.288-1.286 1.288-.483 0-.806-.258-1.03-.58L135.58 29.03l-4.86 4.86v4.894a1.29 1.29 0 0 1-1.288 1.288c-.677 0-1.256-.58-1.256-1.288V18.5z"/></g><path fill="#FFF" d="M60.498 28.32c0-.054-.01-.105-.016-.158-.006-.05-.01-.098-.02-.146-.002-.01 0-.017-.003-.025L55.286 6.65c-.36-2.347-2.593-6.65-8.6-6.65a1.5 1.5 0 0 0 0 3c4.857 0 5.576 3.73 5.64 4.143l4.767 19.7H55.02c-.74-5.926-5.8-10.53-11.926-10.53s-11.186 4.604-11.927 10.53H29.46c-.743-5.926-5.803-10.53-11.928-10.53S6.346 20.917 5.604 26.843H3.407l4.74-19.552.027-.147C8.197 6.973 8.802 3 13.812 3a1.5 1.5 0 0 0 0-3c-6.006 0-8.238 4.303-8.6 6.65L.043 27.99c-.002.01 0 .017-.003.025-.012.05-.015.098-.02.146-.008.054-.017.105-.017.16L0 28.343c0 .035.008.068.01.103.004.058.007.115.017.17.01.047.023.092.036.137.014.048.026.096.044.142.018.046.042.09.064.133.022.04.043.084.068.123.026.04.057.077.086.114.03.04.06.078.093.113.032.033.067.062.102.092.038.033.075.067.116.097.04.026.082.05.123.072.04.024.082.05.127.07.05.02.1.037.152.054.035.012.067.028.104.037.008.002.015 0 .023.003.107.023.217.04.33.04h4.104c.742 5.926 5.802 10.53 11.927 10.53s11.185-4.604 11.926-10.53h1.708c.742 5.926 5.802 10.53 11.927 10.53s11.187-4.604 11.928-10.53H59c.114 0 .224-.017.33-.04.01-.002.016 0 .024-.003.037-.01.07-.025.105-.037.05-.017.103-.032.15-.054.046-.02.087-.046.13-.07.04-.023.083-.046.122-.073.042-.03.08-.064.117-.098.033-.03.07-.06.1-.092.035-.035.064-.074.094-.113.03-.037.06-.074.086-.114.025-.04.045-.082.067-.124.023-.044.046-.088.064-.134.02-.046.032-.094.045-.142.013-.045.027-.09.036-.136.01-.056.014-.113.018-.17.002-.035.01-.068.01-.104.002-.008 0-.016 0-.024zM17.53 37.375c-4.474 0-8.18-3.26-8.895-7.53-.082-.49-.135-.99-.135-1.5s.053-1.012.135-1.5c.716-4.272 4.42-7.532 8.896-7.532s8.182 3.26 8.897 7.53c.082.49.135.99.135 1.5s-.053 1.012-.135 1.5c-.715 4.273-4.42 7.532-8.896 7.532zm25.564 0c-4.475 0-8.18-3.26-8.896-7.53-.082-.49-.135-.99-.135-1.5s.053-1.012.135-1.5c.716-4.272 4.42-7.532 8.896-7.532s8.18 3.26 8.896 7.53c.082.49.135.99.135 1.5s-.053 1.012-.135 1.5c-.716 4.273-4.42 7.532-8.896 7.532z"/></svg><svg width="35.983" height="35.983" viewBox="0 0 35.983 35.983" id="img--map-marker" x="725.4200000000001" y="260.143"><circle fill="#FFF" cx="17.991" cy="17.991" r="17.991"/><circle fill="#D22856" cx="17.991" cy="17.991" r="7.866"/></svg><svg width="49.945" height="24.007" viewBox="0 0 49.945 24.007" id="img--menu-burger" x="720.8820000000001" y="196.35399999999998"><path fill="#FFF" d="M1.137 0C.51 0 0 .428 0 1.01v1.98C0 3.55.494 4 1.14 4h47.67c.628 0 1.138-.427 1.138-1.01V1.01c0-.558-.494-1.01-1.138-1.01H1.137zm0 10.003C.51 10.003 0 10.43 0 11.013v1.98c0 .557.494 1.01 1.14 1.01h47.67c.628 0 1.138-.428 1.138-1.01v-1.98c0-.558-.494-1.01-1.138-1.01H1.137zm0 10.002c-.627 0-1.137.43-1.137 1.01v1.982c0 .557.494 1.01 1.14 1.01h47.67c.628 0 1.138-.428 1.138-1.01v-1.98c0-.56-.494-1.012-1.138-1.012H1.137z"/><path fill="#FFF" d="M1.137 0C.51 0 0 .428 0 1.01v1.98C0 3.55.494 4 1.14 4h47.67c.628 0 1.138-.427 1.138-1.01V1.01c0-.558-.494-1.01-1.138-1.01H1.137zm0 10.003C.51 10.003 0 10.43 0 11.013v1.98c0 .557.494 1.01 1.14 1.01h47.67c.628 0 1.138-.428 1.138-1.01v-1.98c0-.558-.494-1.01-1.138-1.01H1.137zm0 10.002c-.627 0-1.137.43-1.137 1.01v1.982c0 .557.494 1.01 1.14 1.01h47.67c.628 0 1.138-.428 1.138-1.01v-1.98c0-.56-.494-1.012-1.138-1.012H1.137z"/></svg><svg width="49.945" height="24.007" viewBox="0 0 49.945 24.007" id="img--menu-burger-pink" x="770.8270000000001" y="196.35399999999998"><path fill="#D22856" d="M1.137 0C.51 0 0 .428 0 1.01v1.98C0 3.55.494 4 1.14 4h47.67c.628 0 1.138-.427 1.138-1.01V1.01c0-.558-.494-1.01-1.138-1.01H1.137zm0 10.003C.51 10.003 0 10.43 0 11.013v1.98c0 .557.494 1.01 1.14 1.01h47.67c.628 0 1.138-.428 1.138-1.01v-1.98c0-.558-.494-1.01-1.138-1.01H1.137zm0 10.002c-.627 0-1.137.43-1.137 1.01v1.982c0 .557.494 1.01 1.14 1.01h47.67c.628 0 1.138-.428 1.138-1.01v-1.98c0-.56-.494-1.012-1.138-1.012H1.137z"/><path fill="#D22856" d="M1.137 0C.51 0 0 .428 0 1.01v1.98C0 3.55.494 4 1.14 4h47.67c.628 0 1.138-.427 1.138-1.01V1.01c0-.558-.494-1.01-1.138-1.01H1.137zm0 10.003C.51 10.003 0 10.43 0 11.013v1.98c0 .557.494 1.01 1.14 1.01h47.67c.628 0 1.138-.428 1.138-1.01v-1.98c0-.558-.494-1.01-1.138-1.01H1.137zm0 10.002c-.627 0-1.137.43-1.137 1.01v1.982c0 .557.494 1.01 1.14 1.01h47.67c.628 0 1.138-.428 1.138-1.01v-1.98c0-.56-.494-1.012-1.138-1.012H1.137z"/></svg><svg width="23.867" height="23.867" viewBox="0 0 23.867 23.867" id="img--menu-cross" x="820.7720000000002" y="196.35399999999998"><path fill="#FFF" d="M15.087 11.933l8.56-8.56a.75.75 0 0 0 0-1.06L21.554.22a.747.747 0 0 0-1.06 0l-8.56 8.56L3.373.22a.77.77 0 0 0-1.062 0L.22 2.313a.75.75 0 0 0 0 1.06l8.56 8.56-8.56 8.56a.75.75 0 0 0 0 1.06l2.093 2.095a.744.744 0 0 0 1.06 0l8.56-8.56 8.56 8.56a.746.746 0 0 0 1.06 0l2.094-2.094a.75.75 0 0 0 0-1.062l-8.56-8.56z"/></svg><svg width="23.867" height="23.867" viewBox="0 0 23.867 23.867" id="img--menu-cross-pink" x="844.6390000000001" y="196.35399999999998"><path fill="#D22856" d="M15.087 11.933l8.56-8.56a.75.75 0 0 0 0-1.06L21.555.22a.75.75 0 0 0-1.06 0l-8.562 8.56L3.373.22a.77.77 0 0 0-1.06 0L.22 2.313a.75.75 0 0 0 0 1.06l8.56 8.56-8.56 8.56a.753.753 0 0 0 0 1.062l2.093 2.094a.744.744 0 0 0 1.06 0l8.56-8.562 8.56 8.56a.746.746 0 0 0 1.06 0l2.093-2.093a.753.753 0 0 0 0-1.063l-8.56-8.56z"/></svg><svg version="1" width="43.922" height="41.992" viewBox="0 0 43.922 41.992" id="img--microsoft-logo" x="638.0840000000001" y="260.143"><path fill="#F05423" d="M20.874 19.953H0V0h20.874v19.953z"/><path fill="#84C441" d="M43.922 19.953H23.05V0H43.92v19.953z"/><path fill="#2DABE2" d="M20.873 41.992H0V22.04h20.873v19.952z"/><path fill="#F9BC15" d="M43.922 41.992H23.05V22.04H43.92v19.952z"/></svg><svg width="26.752" height="26.752" viewBox="0 0 26.752 26.752" id="img--no" x="868.9839999999999" y="260.143"><path fill="#F25B26" d="M15.497 13.376L26.312 2.562a1.5 1.5 0 1 0-2.12-2.12L13.375 11.254 2.562.44a1.5 1.5 0 1 0-2.12 2.12l10.813 10.815L.44 24.19a1.5 1.5 0 0 0 1.06 2.56c.384 0 .768-.146 1.06-.438l10.816-10.814L24.19 26.312a1.497 1.497 0 0 0 2.122 0 1.5 1.5 0 0 0 0-2.12L15.497 13.375z"/></svg><svg width="78.672" height="63.789" viewBox="0 0 78.672 63.789" id="img--quotes" x="596" y="196.35399999999998"><g fill="#EFEFEF"><path d="M72.354 39.632c-2.797-2.4-6.637-3.604-11.518-3.604h-5.67c.473-4.08 1.277-7.397 2.42-9.948 1.142-2.55 2.854-5.044 5.14-7.477 2.362-2.51 4.685-4.53 6.97-6.063 2.283-1.53 5.274-3.356 8.98-5.477L74.42 0c-2.44 1.495-5.475 3.42-9.096 5.78-3.623 2.358-7.05 5.227-10.277 8.606-3.15 3.302-5.83 7.056-8.032 11.26-2.206 4.205-3.308 8.86-3.308 13.97 0 7.233 1.455 13.07 4.37 17.513 2.913 4.438 7.755 6.66 14.53 6.66 4.33 0 7.736-1.437 10.217-4.312 2.48-2.875 3.72-5.967 3.72-9.273 0-4.646-1.397-8.17-4.19-10.573zM19.02 18.603c2.36-2.51 4.684-4.53 6.97-6.063 2.282-1.53 5.273-3.356 8.977-5.477L30.713 0c-2.44 1.495-5.475 3.42-9.095 5.78-3.624 2.358-7.05 5.227-10.278 8.606-3.15 3.302-5.828 7.056-8.032 11.26C1.103 29.852 0 34.507 0 39.617c0 7.232 1.457 13.07 4.37 17.51 2.913 4.44 7.757 6.663 14.53 6.663 4.33 0 7.737-1.438 10.218-4.313s3.722-5.967 3.722-9.272c0-4.646-1.4-8.17-4.194-10.572-2.796-2.4-6.635-3.604-11.517-3.604h-5.672c.473-4.082 1.3-7.417 2.48-10.008 1.182-2.59 2.874-5.064 5.08-7.42z"/></g></svg><svg width="21.707" height="41.719" viewBox="0 0 21.707 41.719" id="img--review-arrow-left" x="682.0060000000001" y="260.143"><path fill="#283645" d="M2.045 20.86L21.458 1.445A.846.846 0 1 0 20.262.25L.248 20.26a.846.846 0 0 0 0 1.198L20.262 41.47a.84.84 0 0 0 .598.25c.22 0 .436-.084.6-.25a.845.845 0 0 0 0-1.197L2.045 20.86z"/></svg><svg width="21.707" height="41.719" viewBox="0 0 21.707 41.719" id="img--review-arrow-right" x="703.7130000000001" y="260.143"><path fill="#283645" d="M19.662 20.86L.248 1.445A.846.846 0 1 1 1.445.25l20.013 20.01c.33.33.33.867 0 1.197L1.445 41.47a.843.843 0 0 1-1.198 0 .847.847 0 0 1 0-1.197L19.662 20.86z"/></svg><svg width="298" height="345.098" viewBox="0 0 298 345.098" id="img--timer" x="298" y="155.97899999999998"><path fill="#EEE" d="M293.057 157.98c-5.44-20.657-15.197-39.563-28.27-55.688l8.565-8.563c6.072-6.078 6.072-15.93 0-22-3.334-3.34-7.78-4.656-12.13-4.333-3.597.254-7.145 1.598-9.866 4.333l-8.563 8.562c-9.084-7.354-19.082-13.554-29.734-18.627-9.618-4.56-19.75-8.194-30.34-10.67-.09-.017-.204-.017-.31-.037-4.588-1.064-9.205-1.984-13.963-2.612v-9.444h6.88c10.735 0 19.444-8.71 19.444-19.474C194.774 8.706 186.065 0 175.328 0h-53.832c-1.713 0-3.356.288-4.96.695 0 0-.01.03-.02.03-8.326 2.2-14.463 9.714-14.463 18.703 0 10.765 8.71 19.474 19.442 19.474h8.062v9.44C79.47 54.875 37.336 86.338 15.7 129.79c-4.32 8.655-7.893 17.744-10.454 27.235A148.032 148.032 0 0 0 0 196.09c0 64.416 40.952 119.158 98.227 139.945 15.87 5.732 32.922 9.063 50.772 9.063 7.434 0 14.734-.56 21.852-1.634.762-.096 1.484-.32 2.252-.45 20.965-3.433 40.527-11.17 57.598-22.393 23.568-15.495 42.377-37.465 54.078-63.39 8.426-18.7 13.225-39.326 13.225-61.145a149.112 149.112 0 0 0-4.948-38.105zm-66.21 115.963c-14.192 14.188-31.58 23.877-50.538 28.735-6.503 1.626-13.26 2.51-20.067 2.966-.973.063-1.883.23-2.846.24-1.477.072-2.916.3-4.396.3-4.043 0-8.06-.262-12.033-.69-24.86-2.697-47.885-13.607-65.823-31.553-20.794-20.792-32.258-48.453-32.258-77.853 0-2.327.198-4.6.334-6.896 1.66-26.812 12.766-51.818 31.924-70.968 2.383-2.372 4.875-4.596 7.42-6.736l.017-.013c19.75-16.48 44.38-25.5 70.422-25.5 4.757 0 9.438.327 14.05.93a109.844 109.844 0 0 1 40.744 13.76c.138.083.285.185.408.277 8.15 4.745 15.8 10.447 22.646 17.282 1.606 1.62 3.065 3.334 4.55 5.03.055.055.103.12.165.185 3.024 3.447 5.73 7.144 8.293 10.89 1.63 2.44 3.265 4.895 4.692 7.43a108.867 108.867 0 0 1 14.388 51.07c.037 1.09.15 2.147.15 3.262 0 29.4-11.443 57.06-32.24 77.853z"/></svg><svg width="298" height="345.098" viewBox="0 0 298 345.098" id="img--timer-dark" y="155.97899999999998"><path fill="#DEDEDE" d="M293.057 157.98c-5.438-20.657-15.197-39.563-28.27-55.688l8.564-8.563c6.073-6.078 6.073-15.93 0-22-3.333-3.34-7.78-4.656-12.128-4.333-3.598.254-7.146 1.6-9.867 4.333l-8.563 8.563c-9.084-7.354-19.082-13.555-29.734-18.627-9.617-4.56-19.75-8.194-30.338-10.67-.09-.018-.205-.018-.31-.037-4.59-1.065-9.206-1.985-13.964-2.613V38.9h6.88c10.735 0 19.444-8.708 19.444-19.473C194.773 8.707 186.064 0 175.327 0h-53.832c-1.713 0-3.356.288-4.96.694 0 0-.01.03-.02.03-8.326 2.2-14.463 9.714-14.463 18.703 0 10.765 8.71 19.474 19.442 19.474h8.062v9.44c-50.086 6.536-92.22 38-113.856 81.45-4.32 8.656-7.893 17.746-10.454 27.236A148.045 148.045 0 0 0 0 196.09c0 64.416 40.952 119.158 98.227 139.945 15.87 5.73 32.922 9.063 50.772 9.063 7.434 0 14.734-.56 21.852-1.634.762-.096 1.484-.32 2.252-.45 20.965-3.433 40.527-11.17 57.6-22.393 23.566-15.495 42.376-37.466 54.076-63.39 8.427-18.702 13.226-39.327 13.226-61.146a149.155 149.155 0 0 0-4.95-38.104zm-66.21 115.963c-14.192 14.188-31.58 23.877-50.538 28.735-6.503 1.626-13.26 2.51-20.066 2.966-.974.063-1.884.23-2.847.24-1.477.072-2.916.3-4.396.3-4.043 0-8.06-.262-12.033-.69-24.86-2.697-47.885-13.607-65.823-31.554-20.794-20.793-32.258-48.454-32.258-77.854 0-2.327.198-4.602.334-6.896 1.66-26.813 12.766-51.818 31.924-70.97 2.383-2.37 4.875-4.595 7.42-6.735l.017-.013c19.75-16.48 44.38-25.5 70.422-25.5 4.757 0 9.438.327 14.05.93a109.827 109.827 0 0 1 40.744 13.76c.138.084.285.186.408.277 8.15 4.744 15.8 10.446 22.646 17.28 1.606 1.622 3.065 3.335 4.55 5.03.056.056.103.12.165.186 3.024 3.447 5.73 7.145 8.293 10.89 1.63 2.44 3.266 4.896 4.692 7.432a108.867 108.867 0 0 1 14.388 51.07c.037 1.088.15 2.146.15 3.26 0 29.4-11.443 57.062-32.24 77.855z"/></svg><svg version="1" height="94.074" viewBox="0 0 1200 94.074" preserveAspectRatio="none" width="1200" id="img--triangle-white"><path fill="#fff" d="M1200 0H0v94.074z"/></svg><svg version="1" height="61.905" viewBox="0 0 595.28 61.905" preserveAspectRatio="none" width="595.28" id="img--triangle-white-footer" y="94.074"><path fill="#FFF" d="M297.64 61.905L0 0h595.28z"/></svg><svg width="17.5" height="14.664" viewBox="0 0 17.5 14.664" id="img--twitter" x="1180.4799999999998" y="113.017"><path fill="#D22856" d="M11.283.153c1.736-.485 3.074.263 3.685 1.15.694-.225 1.372-.47 2.072-.69-.004.84-.538 1.478-.883 1.727.704.166 1.343-.48 1.343-.48-.175.976-1.035 1.746-1.61 1.977-.24 6.592-3.273 10.955-10.383 10.823h-.46c-.422 0-4.29-.45-5.047-1.843 2.34.192 4.01-.412 4.835-1.15-.99-.292-2.76-.464-3.07-2.88.362.104.583.223 1.228.116C1.757 8.067.385 7.366.46 5.218c.295.32 1.1.523 1.382.46C1.117 5.445-.188 2.4.922.844c1.872 1.81 3.847 3.52 7.368 3.685.216-2.24 1.17-3.74 2.993-4.375z"/></svg><svg width="30.375" height="21.688" viewBox="0 0 30.375 21.688" id="img--yes" x="1037.452" y="155.97899999999998"><path fill="#3DC644" d="M29.936.44a1.5 1.5 0 0 0-2.12 0L10.187 18.065 2.56 10.44a1.5 1.5 0 0 0-2.12 2.12l8.688 8.688c.293.293.677.438 1.06.438.385 0 .77-.146 1.062-.438L29.936 2.56a1.502 1.502 0 0 0 0-2.12z"/></svg><svg width="14.641" height="13.96" viewBox="0 0 14.641 13.96" id="img--youtube" x="595.28" y="134.449"><path fill="#D22856" d="M1.775 13.78C.8 14.257 0 13.757 0 12.67V1.29C0 .202.8-.295 1.775.18l12.133 5.933c.975.478.975 1.258 0 1.736L1.775 13.78z"/></svg></svg>