<?xml version="1.0" encoding="utf-8"?>
<!-- Generator: Adobe Illustrator 16.0.2, SVG Export Plug-In . SVG Version: 6.00 Build 0)  -->
<!DOCTYPE svg PUBLIC "-//W3C//DTD SVG 1.1//EN" "http://www.w3.org/Graphics/SVG/1.1/DTD/svg11.dtd">
<svg version="1.1" id="Layer_1" xmlns="http://www.w3.org/2000/svg" xmlns:xlink="http://www.w3.org/1999/xlink" x="0px" y="0px"
	 width="298px" height="345.098px" viewBox="0 0 298 345.098" enable-background="new 0 0 298 345.098" xml:space="preserve">
<g>
	<path fill="#DEDEDE" d="M293.057,157.98c-5.438-20.657-15.197-39.563-28.271-55.688l8.565-8.563c6.072-6.077,6.072-15.929,0-21.999
		c-3.334-3.34-7.781-4.656-12.129-4.333c-3.598,0.254-7.146,1.599-9.867,4.333l-8.563,8.563
		c-9.084-7.354-19.082-13.555-29.734-18.627c-9.617-4.561-19.75-8.194-30.338-10.669c-0.09-0.019-0.205-0.019-0.311-0.038
		c-4.588-1.064-9.205-1.984-13.963-2.612v-7.98V40.21v-1.309h6.879c10.736,0,19.445-8.709,19.445-19.474
		C194.773,8.706,186.064,0,175.327,0h-6.879h-38.891h-8.062c-1.713,0-3.356,0.288-4.96,0.694c0,0-0.009,0.029-0.02,0.029
		c-8.326,2.202-14.463,9.715-14.463,18.704c0,10.765,8.709,19.474,19.442,19.474h8.062v9.439
		C79.47,54.876,37.337,86.339,15.7,129.791c-4.32,8.655-7.893,17.745-10.454,27.235C1.846,169.485,0,182.555,0,196.089
		c0,64.417,40.952,119.159,98.227,139.946c15.871,5.731,32.922,9.063,50.772,9.063c7.435,0,14.735-0.56,21.853-1.634
		c0.762-0.096,1.484-0.32,2.252-0.45c20.965-3.433,40.527-11.17,57.599-22.393c23.567-15.496,42.377-37.467,54.077-63.392
		c8.427-18.701,13.226-39.326,13.226-61.145C298,182.92,296.275,170.153,293.057,157.98z M226.848,273.943
		c-14.193,14.188-31.58,23.877-50.539,28.735c-6.502,1.626-13.26,2.51-20.065,2.966c-0.974,0.063-1.884,0.229-2.847,0.241
		c-1.477,0.071-2.916,0.298-4.396,0.298c-4.044,0-8.062-0.261-12.034-0.688c-24.859-2.698-47.885-13.608-65.823-31.555
		c-20.794-20.793-32.258-48.454-32.258-77.854c0-2.327,0.198-4.602,0.334-6.896c1.659-26.813,12.766-51.818,31.924-70.969
		c2.383-2.372,4.875-4.596,7.421-6.736l0.016-0.013c19.75-16.479,44.379-25.5,70.421-25.5c4.757,0,9.438,0.327,14.051,0.929
		c14.463,1.872,28.247,6.572,40.743,13.762c0.138,0.083,0.285,0.185,0.408,0.276c8.149,4.745,15.799,10.447,22.646,17.282
		c1.606,1.621,3.065,3.334,4.549,5.03c0.057,0.055,0.104,0.12,0.166,0.185c3.024,3.447,5.729,7.145,8.293,10.891
		c1.629,2.439,3.266,4.895,4.692,7.431c8.847,15.449,13.853,32.853,14.388,51.07c0.037,1.088,0.151,2.146,0.151,3.261
		C259.088,225.489,247.645,253.15,226.848,273.943z"/>
</g>
</svg>
